<svg width="64" height="64" viewBox="0 0 64 64" fill="none" xmlns="http://www.w3.org/2000/svg">
<rect opacity="0.500186" width="64" height="64" rx="20" fill="url(#paint0_linear)"/>
<path opacity="0.7" d="M33 27C33 30.866 29.866 34 26 34C22.134 34 19 30.866 19 27C19 23.134 22.134 20 26 20C29.866 20 33 23.134 33 27Z" fill="white"/>
<path opacity="0.7" d="M37 43.1135C37 45.7336 33.5 44.8603 26.5 44.8603C19.4999 44.8603 16 45.7336 16 43.1135C16 40.4934 19.4999 37 26.5 37C33.5 37 37 40.4934 37 43.1135Z" fill="white"/>
<path fill-rule="evenodd" clip-rule="evenodd" d="M34.6576 26.9883C34.6576 28.2771 34.3754 29.5157 33.8672 30.6221C34.6417 32.9223 36.7486 34.572 39.2263 34.572C42.3612 34.572 44.9025 31.931 44.9025 28.6732C44.9025 25.4153 42.3612 22.7743 39.2263 22.7743C37.2615 22.7743 35.5298 23.8118 34.5108 25.3884C34.6073 25.9086 34.6576 26.444 34.6576 26.9883ZM42.632 44.7646C46.0378 44.893 47.7407 44.9573 47.7407 42.999C47.7407 40.4709 44.9025 37.1001 39.2263 37.1001C36.8541 37.1001 35.9968 37.6859 35.8025 38.5524C37.0359 39.9565 37.6921 41.6149 37.6921 43.2059C37.6921 43.724 37.6167 44.2417 37.4225 44.7173C37.8936 44.6984 38.4862 44.6844 39.2263 44.6844C40.5057 44.6844 41.641 44.7272 42.632 44.7646Z" fill="white"/>
<defs>
<linearGradient id="paint0_linear" x1="0" y1="0" x2="0" y2="64" gradientUnits="userSpaceOnUse">
<stop stop-color="#B8DEFF"/>
<stop offset="1" stop-color="#48B2F8"/>
</linearGradient>
</defs>
</svg>
