<svg width="22" height="22" viewBox="0 0 22 22" fill="none" xmlns="http://www.w3.org/2000/svg">
<path d="M19.7084 17.4167V12.1268C19.7084 10.7036 19.7084 9.99196 19.5263 9.33573C19.3649 8.7544 19.0997 8.20707 18.7434 7.7202C18.3412 7.1706 17.7826 6.72965 16.6656 5.84776L16.6656 5.84775L15.9572 5.28854C14.1863 3.89042 13.3008 3.19135 12.3208 2.92296C11.4562 2.68618 10.5439 2.68618 9.67936 2.92296C8.69937 3.19135 7.81389 3.89042 6.04292 5.28855L5.33459 5.84775C4.21752 6.72965 3.65899 7.1706 3.25679 7.7202C2.90049 8.20707 2.63526 8.7544 2.4739 9.33573C2.29175 9.99196 2.29175 10.7036 2.29175 12.1268V17.4167C2.29175 18.1145 2.29175 18.4633 2.37787 18.7472C2.57177 19.3864 3.07198 19.8866 3.71118 20.0805C3.99508 20.1667 4.34397 20.1667 5.04175 20.1667H5.84383C6.91964 20.1667 7.79175 19.2946 7.79175 18.2188V15.5833C7.79175 13.8114 9.22817 12.375 11.0001 12.375C12.772 12.375 14.2084 13.8114 14.2084 15.5833V18.2188C14.2084 19.2946 15.0805 20.1667 16.1563 20.1667H16.9584C17.6562 20.1667 18.0051 20.1667 18.289 20.0805C18.9282 19.8866 19.4284 19.3864 19.6223 18.7472C19.7084 18.4633 19.7084 18.1144 19.7084 17.4167Z" fill="white"/>
</svg>
