<svg width="20" height="18" viewBox="0 0 20 18" fill="none" xmlns="http://www.w3.org/2000/svg">
<path opacity="0.5" fill-rule="evenodd" clip-rule="evenodd" d="M0.0999756 3.9C0.0999756 1.74609 1.84607 0 3.99998 0H16C18.1539 0 19.9 1.74609 19.9 3.9V13.9C19.9 16.0539 18.1539 17.8 16 17.8H3.99998C1.84607 17.8 0.0999756 16.0539 0.0999756 13.9V3.9ZM1.89998 13.9V4.9H18.1V13.9C18.1 15.0598 17.1598 16 16 16H3.99998C2.84018 16 1.89998 15.0598 1.89998 13.9ZM4.74998 6.49998C4.25292 6.49998 3.84998 6.90292 3.84998 7.39998C3.84998 7.89703 4.25292 8.29998 4.74998 8.29998H6.24998C6.74703 8.29998 7.14998 7.89703 7.14998 7.39998C7.14998 6.90292 6.74703 6.49998 6.24998 6.49998H4.74998ZM9.24998 6.49998C8.75292 6.49998 8.34998 6.90292 8.34998 7.39998C8.34998 7.89703 8.75292 8.29998 9.24998 8.29998H10.75C11.247 8.29998 11.65 7.89703 11.65 7.39998C11.65 6.90292 11.247 6.49998 10.75 6.49998H9.24998ZM13.75 6.49998C13.2529 6.49998 12.85 6.90292 12.85 7.39998C12.85 7.89703 13.2529 8.29998 13.75 8.29998H15.25C15.747 8.29998 16.15 7.89703 16.15 7.39998C16.15 6.90292 15.747 6.49998 15.25 6.49998H13.75ZM4.74998 9.49998C4.25292 9.49998 3.84998 9.90292 3.84998 10.4C3.84998 10.897 4.25292 11.3 4.74998 11.3H6.24998C6.74703 11.3 7.14998 10.897 7.14998 10.4C7.14998 9.90292 6.74703 9.49998 6.24998 9.49998H4.74998ZM9.24998 9.49998C8.75292 9.49998 8.34998 9.90292 8.34998 10.4C8.34998 10.897 8.75292 11.3 9.24998 11.3H10.75C11.247 11.3 11.65 10.897 11.65 10.4C11.65 9.90292 11.247 9.49998 10.75 9.49998H9.24998ZM13.75 9.49998C13.2529 9.49998 12.85 9.90292 12.85 10.4C12.85 10.897 13.2529 11.3 13.75 11.3H15.25C15.747 11.3 16.15 10.897 16.15 10.4C16.15 9.90292 15.747 9.49998 15.25 9.49998H13.75ZM4.74998 12.5C4.25292 12.5 3.84998 12.9029 3.84998 13.4C3.84998 13.897 4.25292 14.3 4.74998 14.3H6.24998C6.74703 14.3 7.14998 13.897 7.14998 13.4C7.14998 12.9029 6.74703 12.5 6.24998 12.5H4.74998ZM9.24998 12.5C8.75292 12.5 8.34998 12.9029 8.34998 13.4C8.34998 13.897 8.75292 14.3 9.24998 14.3H10.75C11.247 14.3 11.65 13.897 11.65 13.4C11.65 12.9029 11.247 12.5 10.75 12.5H9.24998ZM13.75 12.5C13.2529 12.5 12.85 12.9029 12.85 13.4C12.85 13.897 13.2529 14.3 13.75 14.3H15.25C15.747 14.3 16.15 13.897 16.15 13.4C16.15 12.9029 15.747 12.5 15.25 12.5H13.75Z" fill="white"/>
</svg>
