<svg width="18" height="17" viewBox="0 0 18 17" fill="none" xmlns="http://www.w3.org/2000/svg">
<path fill-rule="evenodd" clip-rule="evenodd" d="M2.46539 0.21967C2.1725 -0.0732233 1.69762 -0.0732233 1.40473 0.21967C1.21856 0.405841 1.15072 0.665537 1.20122 0.905288C1.22485 1.01748 1.3183 1.09497 1.40729 1.16726C1.42733 1.18354 1.44673 1.20101 1.46539 1.21967L16.5765 16.3308C16.5952 16.3494 16.6126 16.3688 16.6289 16.3889C16.7012 16.4779 16.7787 16.5713 16.8909 16.5949C17.1306 16.6454 17.3903 16.5776 17.5765 16.3914C17.8694 16.0985 17.8694 15.6237 17.5765 15.3308L15.3717 13.126C15.1701 12.9243 15.1783 12.5958 15.3806 12.3948C16.2493 11.5321 17.0531 10.4835 17.7682 9.25755C17.9044 9.02402 17.9044 8.73526 17.7682 8.50174C15.4752 4.57095 12.2716 2.46298 8.93519 2.46298C7.86949 2.46298 6.81734 2.67805 5.80408 3.09889C5.61056 3.17927 5.38623 3.14051 5.23806 2.99234L2.46539 0.21967ZM11.9203 14.7195C12.2396 14.5936 12.3085 14.1842 12.0658 13.9414L11.6586 13.5342C11.5168 13.3924 11.3045 13.3506 11.1153 13.4171C10.3895 13.6718 9.65739 13.7963 8.93519 13.7963C6.45103 13.7963 3.84985 12.3235 1.79102 9.1418C1.68791 8.98244 1.68771 8.77715 1.79082 8.61779C2.37855 7.70947 3.01047 6.94041 3.67126 6.30514C3.88039 6.10408 3.89304 5.76864 3.6879 5.5635L3.33784 5.21344C3.15099 5.02659 2.85031 5.01659 2.65933 5.1992C1.7255 6.09207 0.863617 7.19639 0.102166 8.50174C-0.0340553 8.73526 -0.0340553 9.02402 0.102166 9.25754C2.39513 13.1883 5.59882 15.2963 8.93519 15.2963C9.94977 15.2963 10.9521 15.1014 11.9203 14.7195ZM5.99412 7.86972C5.7457 7.6213 5.32704 7.7028 5.2498 8.04553C5.18933 8.31387 5.15741 8.59303 5.15741 8.87964C5.15741 10.9661 6.84878 12.6574 8.93519 12.6574C9.2218 12.6574 9.50096 12.6255 9.7693 12.565C10.112 12.4878 10.1935 12.0691 9.94511 11.8207L5.99412 7.86972ZM16.0793 8.61749C16.1825 8.77684 16.1827 8.98213 16.0795 9.14149C15.5176 10.01 14.9151 10.7513 14.2857 11.3699C14.0961 11.5563 13.7931 11.5474 13.6052 11.3594L12.6964 10.4507C12.5571 10.3114 12.5155 10.1042 12.5694 9.91483C12.6629 9.58586 12.713 9.2386 12.713 8.87964C12.713 6.79323 11.0216 5.10187 8.93519 5.10187C8.57623 5.10187 8.22896 5.15193 7.89999 5.24546C7.71061 5.2993 7.5034 5.25768 7.36418 5.11846L7.18313 4.93741C6.92555 4.67983 7.02254 4.24411 7.37604 4.1562C7.89686 4.02668 8.41856 3.96298 8.93519 3.96298C11.4193 3.96298 14.0205 5.43575 16.0793 8.61749Z" fill="#262F56"/>
</svg>
