<svg width="16" height="13" viewBox="0 0 16 13" fill="none" xmlns="http://www.w3.org/2000/svg">
<path fill-rule="evenodd" clip-rule="evenodd" d="M14 2.54545C15.1046 2.54545 16 3.44089 16 4.54545V5.45456H13.0909C11.8859 5.45456 10.9091 6.43139 10.9091 7.63637C10.9091 8.84136 11.8859 9.81819 13.0909 9.81819H16V10.7273C16 11.8318 15.1046 12.7273 14 12.7273H2C0.895431 12.7273 0 11.8318 0 10.7273V2C0 0.895431 0.89543 0 2 0H11.6364C12.4397 0 13.0909 0.651222 13.0909 1.45455H2.36364C2.06239 1.45455 1.81818 1.69875 1.81818 2C1.81818 2.30125 2.06239 2.54545 2.36364 2.54545H14ZM13.0909 6.54545C12.4884 6.54545 12 7.03387 12 7.63636C12 8.23886 12.4884 8.72727 13.0909 8.72727H16V6.54545H13.0909Z" fill="#4BA0EA"/>
</svg>
