<svg width="30" height="32" viewBox="0 0 30 32" fill="none" xmlns="http://www.w3.org/2000/svg">
<path opacity="0.5" d="M5.03406 3.50088C5.03406 1.84403 6.3772 0.500885 8.03406 0.500885H17.6771V4.50089C17.6771 6.15774 19.0203 7.50089 20.6771 7.50089H24.9017V23.7509C24.9017 25.4077 23.5586 26.7509 21.9017 26.7509H8.03405C6.3772 26.7509 5.03406 25.4077 5.03406 23.7509V3.50088Z" fill="white"/>
<path opacity="0.7" d="M17.6771 4.44257V0.442566L24.9017 7.44257H20.6771C19.0203 7.44257 17.6771 6.09942 17.6771 4.44257Z" fill="white"/>
<path fill-rule="evenodd" clip-rule="evenodd" d="M7.51868 12.5676C7.51868 12.0153 7.96639 11.5676 8.51868 11.5676H18.5187C19.071 11.5676 19.5187 12.0153 19.5187 12.5676C19.5187 13.1199 19.071 13.5676 18.5187 13.5676H8.51868C7.96639 13.5676 7.51868 13.1199 7.51868 12.5676ZM7.51868 16.5676C7.51868 16.0153 7.96639 15.5676 8.51868 15.5676H18.5187C19.071 15.5676 19.5187 16.0153 19.5187 16.5676C19.5187 17.1199 19.071 17.5676 18.5187 17.5676H8.51868C7.96639 17.5676 7.51868 17.1199 7.51868 16.5676ZM8.51868 19.5676C7.96639 19.5676 7.51868 20.0153 7.51868 20.5676C7.51868 21.1199 7.96639 21.5676 8.51868 21.5676H15.5187C16.071 21.5676 16.5187 21.1199 16.5187 20.5676C16.5187 20.0153 16.071 19.5676 15.5187 19.5676H8.51868Z" fill="white"/>
</svg>
