<svg width="18" height="20" viewBox="0 0 18 20" fill="none" xmlns="http://www.w3.org/2000/svg">
<path fill-rule="evenodd" clip-rule="evenodd" d="M7.99998 0.100006C6.39835 0.100006 5.09998 1.39838 5.09998 3.00001V3.10001H1.99998H0.999976C0.502919 3.10001 0.0999756 3.50295 0.0999756 4.00001C0.0999756 4.49706 0.502919 4.90001 0.999976 4.90001H1.99998H2.30882L3.13423 17.1715L3.13435 17.1735C3.22588 18.6219 4.42735 19.75 5.87888 19.75H12.1211C13.5726 19.75 14.774 18.6219 14.8656 17.1736L14.8657 17.1715L15.6911 4.90001H16H17C17.497 4.90001 17.9 4.49706 17.9 4.00001C17.9 3.50295 17.497 3.10001 17 3.10001H16H12.9V3.00001C12.9 1.39838 11.6016 0.100006 9.99998 0.100006H7.99998ZM11.1 3.10001H6.89998V3.00001C6.89998 2.39249 7.39246 1.90001 7.99998 1.90001H9.99998C10.6075 1.90001 11.1 2.39249 11.1 3.00001V3.10001ZM7.59915 7.96147C7.57787 7.46487 7.15804 7.07955 6.66144 7.10083C6.16484 7.12211 5.77952 7.54194 5.8008 8.03854L6.1008 15.0385C6.12208 15.5351 6.54191 15.9205 7.03851 15.8992C7.53511 15.8779 7.92043 15.4581 7.89915 14.9615L7.59915 7.96147ZM12.1992 8.03854C12.2204 7.54194 11.8351 7.12211 11.3385 7.10083C10.8419 7.07955 10.4221 7.46487 10.4008 7.96147L10.1008 14.9615C10.0795 15.4581 10.4648 15.8779 10.9614 15.8992C11.458 15.9205 11.8779 15.5351 11.8992 15.0385L12.1992 8.03854Z" fill="#DE1D28"/>
</svg>
