<svg width="16" height="16" viewBox="0 0 16 16" fill="none" xmlns="http://www.w3.org/2000/svg">
<path fill-rule="evenodd" clip-rule="evenodd" d="M8 15.875C12.3492 15.875 15.875 12.3492 15.875 8C15.875 3.65076 12.3492 0.125 8 0.125C3.65076 0.125 0.125 3.65076 0.125 8C0.125 12.3492 3.65076 15.875 8 15.875ZM8.8535 3.37C8.6935 3.186 8.4855 3.094 8.2295 3.094C7.9815 3.094 7.7575 3.198 7.5575 3.406C7.3655 3.614 7.2695 3.858 7.2695 4.138C7.2695 4.402 7.3495 4.622 7.5095 4.798C7.6775 4.974 7.8935 5.062 8.1575 5.062C8.4215 5.062 8.6415 4.966 8.8175 4.774C9.0015 4.574 9.0935 4.33 9.0935 4.042C9.0935 3.77 9.0135 3.546 8.8535 3.37ZM8.6615 6.478C8.4935 6.238 8.2095 6.118 7.8095 6.118C7.4735 6.118 7.1735 6.222 6.9095 6.43C6.6535 6.63 6.4415 6.878 6.2735 7.174C6.1135 7.462 6.0095 7.734 5.9615 7.99L6.6095 8.182C6.7855 7.55 6.9775 7.234 7.1855 7.234C7.3135 7.234 7.3775 7.338 7.3775 7.546C7.3775 7.81 7.3175 8.334 7.1975 9.118C7.0535 10.03 6.9815 10.666 6.9815 11.026C6.9815 11.482 7.0655 11.822 7.2335 12.046C7.4095 12.27 7.7095 12.382 8.1335 12.382C8.4695 12.382 8.7655 12.282 9.0215 12.082C9.2775 11.874 9.4855 11.626 9.6455 11.338C9.8055 11.05 9.9095 10.774 9.9575 10.51L9.3095 10.318C9.1335 10.95 8.9375 11.266 8.7215 11.266C8.6015 11.266 8.5415 11.162 8.5415 10.954C8.5415 10.818 8.5655 10.574 8.6135 10.222C8.6615 9.862 8.6935 9.63 8.7095 9.526C8.7255 9.39 8.7655 9.082 8.8295 8.602C8.8935 8.114 8.9255 7.75 8.9255 7.51C8.9255 7.062 8.8375 6.718 8.6615 6.478Z" fill="#262F56"/>
</svg>
