<svg width="64" height="64" viewBox="0 0 64 64" fill="none" xmlns="http://www.w3.org/2000/svg">
<rect width="64" height="64" rx="20" fill="url(#paint0_linear)"/>
<path d="M24.6482 23.8C24.6482 22.1198 24.6482 21.2798 24.9752 20.638C25.2628 20.0735 25.7217 19.6146 26.2862 19.327C26.928 19 27.768 19 29.4482 19H35.1445C36.8246 19 37.6647 19 38.3065 19.327C38.8709 19.6146 39.3299 20.0735 39.6175 20.638C39.9445 21.2798 39.9445 22.1198 39.9445 23.8V32.6963C39.9445 33.2563 39.9445 33.5364 39.8355 33.7503C39.7396 33.9384 39.5866 34.0914 39.3985 34.1873C39.1846 34.2963 38.9045 34.2963 38.3445 34.2963H26.2482C25.6881 34.2963 25.4081 34.2963 25.1942 34.1873C25.006 34.0914 24.8531 33.9384 24.7572 33.7503C24.6482 33.5364 24.6482 33.2563 24.6482 32.6963V23.8Z" fill="#1C93E2"/>
<path d="M22.7361 43.8565V40.0764C22.7361 39.5241 23.1838 39.0764 23.7361 39.0764H40.8565C41.4087 39.0764 41.8565 39.5241 41.8565 40.0764V43.8565" stroke="#262F56" stroke-width="1.5" stroke-linecap="round" stroke-linejoin="round"/>
<circle cx="19.39" cy="33.8183" r="2.39005" fill="#262F56"/>
<circle cx="45.2025" cy="33.8183" r="2.39005" fill="#262F56"/>
<defs>
<linearGradient id="paint0_linear" x1="0" y1="-15" x2="0" y2="64" gradientUnits="userSpaceOnUse">
<stop stop-color="#F7F9FA"/>
<stop offset="1" stop-color="#D7ECFF"/>
</linearGradient>
</defs>
</svg>
