<svg width="64" height="65" viewBox="0 0 64 65" fill="none" xmlns="http://www.w3.org/2000/svg">
<rect width="64" height="64" rx="20" fill="url(#paint0_linear)"/>
<path opacity="0.5" fill-rule="evenodd" clip-rule="evenodd" d="M32.8746 46.8648C32.1644 46.993 31.4859 46.5172 31.3648 45.8057L27.0768 20.6301C26.9573 19.9286 27.4251 19.2617 28.1254 19.1352C28.8356 19.007 29.514 19.4828 29.6352 20.1943L33.9232 45.3699C34.0427 46.0714 33.5749 46.7383 32.8746 46.8648Z" fill="black"/>
<path d="M46.3424 19.1193L45.4224 18.3055C43.2797 16.4055 39.9988 16.6025 38.0994 18.7457L35.4665 21.7161C34.8722 22.3867 34.934 23.4161 35.6042 24.011L35.8513 24.2302C36.524 24.8266 37.5502 24.765 38.147 24.0923L40.7798 21.122C41.3671 20.46 42.3844 20.399 43.0468 20.9854L43.9657 21.8006C44.6282 22.3877 44.6906 23.4049 44.1025 24.0672L38.3453 30.5619C37.8581 31.1125 37.0608 31.261 36.4064 30.9229C35.6909 30.5534 34.8182 30.7157 34.2839 31.3183L34.239 31.369C33.8775 31.7767 33.7268 32.3179 33.8255 32.854C33.9243 33.3898 34.2579 33.8417 34.7407 34.094C35.5042 34.4931 36.3287 34.6863 37.1451 34.6863C38.5919 34.6863 40.0136 34.0797 41.0265 32.9374L46.7833 26.4435C48.6805 24.3032 48.4831 21.018 46.3424 19.1193Z" fill="black"/>
<path d="M25.4813 40.6765L25.2336 40.4571C24.5626 39.8625 23.5329 39.925 22.9385 40.5958L20.3068 43.5658C19.7192 44.2276 18.7026 44.289 18.0408 43.703L17.1206 42.8867C16.4579 42.2998 16.3956 41.2835 16.984 40.6209L22.7409 34.1267C23.2182 33.5876 24.0035 33.4335 24.6508 33.7515C25.3947 34.117 26.2979 33.9393 26.8486 33.3178L26.8693 33.2945C27.223 32.8951 27.3719 32.365 27.2778 31.8401C27.1837 31.3152 26.8601 30.8698 26.3898 30.6182C24.2635 29.4799 21.6609 29.9456 20.0608 31.7513L14.3035 38.2442C12.406 40.3845 12.6034 43.6697 14.7437 45.5676L15.6637 46.3826C16.6495 47.2565 17.8778 47.6859 19.102 47.6859C20.5359 47.6859 21.9638 47.0965 22.9879 45.9418L25.62 42.9717C26.2155 42.2993 26.1544 41.2732 25.4813 40.6765Z" fill="#4BA0EA"/>
<defs>
<linearGradient id="paint0_linear" x1="0" y1="-15" x2="0" y2="64" gradientUnits="userSpaceOnUse">
<stop stop-color="#F7F9FA"/>
<stop offset="1" stop-color="#D7ECFF"/>
</linearGradient>
</defs>
</svg>
