<svg width="15" height="14" viewBox="0 0 15 14" fill="none" xmlns="http://www.w3.org/2000/svg">
<ellipse opacity="0.7" cx="4.5" cy="4" rx="3" ry="3.5" fill="white"/>
<path opacity="0.7" d="M9 12.5C9 14 7.5 13.5 4.49998 13.5C1.49996 13.5 0 14 0 12.5C0 11 1.49996 9 4.49998 9C7.5 9 9 11 9 12.5Z" fill="white"/>
<path opacity="0.5" fill-rule="evenodd" clip-rule="evenodd" d="M8.99995 4C8.99995 4.87265 8.78612 5.73673 8.39587 6.49483C8.93735 7.11647 9.68026 7.5 10.5 7.5C12.1568 7.5 13.5 5.933 13.5 4C13.5 2.067 12.1568 0.5 10.5 0.5C9.68026 0.5 8.93735 0.883533 8.39587 1.50517C8.78612 2.26327 8.99995 3.12735 8.99995 4ZM12.2999 13.5476C14.1 13.6238 15 13.6619 15 12.5C15 11 13.5 9 10.4999 9C9.82211 9 9.34848 9.07657 9.02715 9.21242C9.97672 10.1393 10.5 11.3314 10.5 12.5C10.5 12.8141 10.4584 13.1615 10.3343 13.5C10.3878 13.5 10.443 13.5 10.4999 13.5C11.1761 13.5 11.7761 13.5254 12.2999 13.5476H12.2999Z" fill="white"/>
</svg>
